<?xml version="1.0" encoding="iso-8859-1"?>
<!-- Generator: Adobe Illustrator 19.0.0, SVG Export Plug-In . SVG Version: 6.00 Build 0)  -->
<svg version="1.1" id="Layer_1" xmlns="http://www.w3.org/2000/svg" xmlns:xlink="http://www.w3.org/1999/xlink" x="0px" y="0px"
	 viewBox="0 0 512 512" style="enable-background:new 0 0 512 512;" xml:space="preserve">
<g>
	<g>
		<path d="M416.914,0H95.086C58.788,0,29.257,29.531,29.257,65.829c0,29.36,19.323,54.284,45.916,62.742L119.414,512h273.169
			l44.241-383.429c26.595-8.458,45.918-33.382,45.918-62.742C482.743,29.531,453.212,0,416.914,0z M353.472,468.114H158.528
			l-38.823-336.457h272.589L353.472,468.114z M416.914,87.771H95.086c-12.099,0-21.943-9.844-21.943-21.943
			c0-12.099,9.844-21.943,21.943-21.943h321.829c12.099,0,21.943,9.844,21.943,21.943C438.857,77.928,429.014,87.771,416.914,87.771
			z"/>
	</g>
</g>
<g>
</g>
<g>
</g>
<g>
</g>
<g>
</g>
<g>
</g>
<g>
</g>
<g>
</g>
<g>
</g>
<g>
</g>
<g>
</g>
<g>
</g>
<g>
</g>
<g>
</g>
<g>
</g>
<g>
</g>
</svg>
